C:\Users\r0593348\3dpredictsim\Results\batch_windlass\Pog_s1_tmt_bCst_d00_k800_WL40_ig24_act_TTC_GRF.mot
nRows=27
nColumns=19

name C:\Users\r0593348\3dpredictsim\Results\batch_windlass\Pog_s1_tmt_bCst_d00_k800_WL40_ig24_act_TTC_GRF.mot
datacolumns 19
datarows 27
range 0.0000000000 0.3320392092
endheader
time 	ground_force_vx	ground_force_vy	ground_force_vz	ground_force_px	ground_force_py	ground_force_pz	1_ground_force_vx	1_ground_force_vy	1_ground_force_vz	1_ground_force_px	1_ground_force_py	1_ground_force_pz	ground_torque_x	ground_torque_y	ground_torque_z	1_ground_torque_x	1_ground_torque_y	1_ground_torque_z
        0.0000000000	      -46.2788557076	       38.2494440896	       15.6767549382	        0.1941803104	        0.0000000000	        0.0521264537	       44.6421521566	      245.2894182376	       -4.4670715041	       -0.3625854903	        0.0000000000	       -0.0189495032	        0.0000000000	        0.0000000000	        0.0000000000	        0.0000000000	        0.0000000000	        0.0000000000	
        0.0127707388	     -134.2167612094	      146.2334317453	       63.3109229465	        0.2017371772	        0.0000000000	        0.0499060556	       30.1660793511	      195.1662705656	      -16.9666873845	       -0.3592503371	        0.0000000000	       -0.0174828081	        0.0000000000	        0.0000000000	        0.0000000000	        0.0000000000	        0.0000000000	        0.0000000000	
        0.0255414776	      -93.3320088663	      389.5569122738	       14.7905584634	        0.2069923305	        0.0000000000	        0.0476035174	       27.9736436898	      145.8969394020	      -15.2522782731	       -0.3587968257	        0.0000000000	       -0.0174073980	        0.0000000000	        0.0000000000	        0.0000000000	        0.0000000000	        0.0000000000	        0.0000000000	
        0.0383122164	      -89.6494390903	      659.5780892295	      -12.6857640822	        0.2119238247	        0.0000000000	        0.0478342427	       15.5209756982	       86.4885438183	      -12.0887003428	       -0.3587668365	        0.0000000000	       -0.0174576580	        0.0000000000	        0.0000000000	        0.0000000000	        0.0000000000	        0.0000000000	        0.0000000000	
        0.0510829553	     -142.7260106960	      920.2959961410	      -23.2099917851	        0.2225703032	        0.0000000000	        0.0501299877	        1.8793756019	       25.6116713130	       -5.5081929029	       -0.3591278746	        0.0000000000	       -0.0175723756	        0.0000000000	        0.0000000000	        0.0000000000	        0.0000000000	        0.0000000000	        0.0000000000	
        0.0638536941	     -169.2506429679	     1009.3488107266	      -28.8225991233	        0.2299718057	        0.0000000000	        0.0515858519	        0.5378853830	       -0.5325919049	       -0.0106824538	        0.0000000000	        0.0000000000	        0.0000000000	        0.0000000000	        0.0000000000	        0.0000000000	        0.0000000000	        0.0000000000	        0.0000000000	
        0.0766244329	     -155.4271385798	      971.8619128003	      -28.9368711680	        0.2356329738	        0.0000000000	        0.0525695460	        0.6388026431	       -0.4456922892	       -0.0783178685	        0.0000000000	        0.0000000000	        0.0000000000	        0.0000000000	        0.0000000000	        0.0000000000	        0.0000000000	        0.0000000000	        0.0000000000	
        0.0893951717	     -146.3196941326	      889.5905683766	      -22.2694351543	        0.2402089215	        0.0000000000	        0.0532119057	       -3.9487422645	        2.4144931072	        0.5100297948	        0.0000000000	        0.0000000000	        0.0000000000	        0.0000000000	        0.0000000000	        0.0000000000	        0.0000000000	        0.0000000000	        0.0000000000	
        0.1021659105	     -128.1991485126	      826.2291487091	      -18.4685739489	        0.2440755711	        0.0000000000	        0.0532478846	       -1.6001589849	        0.8929945699	        0.1820468999	        0.0000000000	        0.0000000000	        0.0000000000	        0.0000000000	        0.0000000000	        0.0000000000	        0.0000000000	        0.0000000000	        0.0000000000	
        0.1149366493	     -109.5356294362	      769.9662175272	      -17.8036282036	        0.2484522245	        0.0000000000	        0.0530569493	       -0.6108171004	        0.3295614276	        0.0587077223	        0.0000000000	        0.0000000000	        0.0000000000	        0.0000000000	        0.0000000000	        0.0000000000	        0.0000000000	        0.0000000000	        0.0000000000	
        0.1277073881	      -94.9045425756	      722.4096603450	      -18.1726619248	        0.2532644326	        0.0000000000	        0.0527518624	       -0.3697882815	        0.1922255086	        0.0317801961	        0.0000000000	        0.0000000000	        0.0000000000	        0.0000000000	        0.0000000000	        0.0000000000	        0.0000000000	        0.0000000000	        0.0000000000	
        0.1404781270	      -83.0772686299	      685.6094473529	      -18.7942387970	        0.2578688205	        0.0000000000	        0.0524350553	       -0.2045072396	        0.1036782866	        0.0155209066	        0.0000000000	        0.0000000000	        0.0000000000	        0.0000000000	        0.0000000000	        0.0000000000	        0.0000000000	        0.0000000000	        0.0000000000	
        0.1532488658	      -72.4572857071	      657.3661198498	      -19.4482633524	        0.2621547758	        0.0000000000	        0.0521817652	       -0.1239177475	        0.0613881413	        0.0087195703	        0.0000000000	        0.0000000000	        0.0000000000	        0.0000000000	        0.0000000000	        0.0000000000	        0.0000000000	        0.0000000000	        0.0000000000	
        0.1660196046	      -62.5500181378	      634.4390733002	      -19.8427681887	        0.2661641020	        0.0000000000	        0.0520080696	       -0.0938552678	        0.0452396565	        0.0063989851	        0.0000000000	        0.0000000000	        0.0000000000	        0.0000000000	        0.0000000000	        0.0000000000	        0.0000000000	        0.0000000000	        0.0000000000	
        0.1787903434	      -54.3934934421	      617.2786190199	      -20.1435257490	        0.2699934248	        0.0000000000	        0.0518911863	       -0.0882111007	        0.0411999215	        0.0060159805	        0.0000000000	        0.0000000000	        0.0000000000	        0.0000000000	        0.0000000000	        0.0000000000	        0.0000000000	        0.0000000000	        0.0000000000	
        0.1915610822	      -46.6908227346	      604.4550411063	      -20.4406140980	        0.2737346766	        0.0000000000	        0.0518080137	       -0.0987039669	        0.0446682060	        0.0068541039	        0.0000000000	        0.0000000000	        0.0000000000	        0.0000000000	        0.0000000000	        0.0000000000	        0.0000000000	        0.0000000000	        0.0000000000	
        0.2043318210	      -39.9147101245	      594.1327689359	      -20.5302477204	        0.2774723553	        0.0000000000	        0.0517402065	       -0.1283530483	        0.0564839165	        0.0090538021	        0.0000000000	        0.0000000000	        0.0000000000	        0.0000000000	        0.0000000000	        0.0000000000	        0.0000000000	        0.0000000000	        0.0000000000	
        0.2171025598	      -33.8741487153	      586.0573179576	      -20.4159723409	        0.2812241290	        0.0000000000	        0.0516750156	       -0.1875464610	        0.0806216414	        0.0132593444	        0.0000000000	        0.0000000000	        0.0000000000	        0.0000000000	        0.0000000000	        0.0000000000	        0.0000000000	        0.0000000000	        0.0000000000	
        0.2298732987	      -28.4811048548	      579.9858566684	      -20.0754868243	        0.2849271879	        0.0000000000	        0.0516038293	       -0.2935678479	        0.1237522818	        0.0204794601	        0.0000000000	        0.0000000000	        0.0000000000	        0.0000000000	        0.0000000000	        0.0000000000	        0.0000000000	        0.0000000000	        0.0000000000	
        0.2426440375	      -22.9463999882	      575.8874458717	      -20.0359847367	        0.2887290217	        0.0000000000	        0.0514990427	       -0.4640094138	        0.1923739832	        0.0315609448	        0.0000000000	        0.0000000000	        0.0000000000	        0.0000000000	        0.0000000000	        0.0000000000	        0.0000000000	        0.0000000000	        0.0000000000	
        0.2554147763	      -17.7462253523	      573.0019572083	      -20.0356081643	        0.2928079407	        0.0000000000	        0.0513291155	       -0.6988901389	        0.2856775518	        0.0459598144	        0.0000000000	        0.0000000000	        0.0000000000	        0.0000000000	        0.0000000000	        0.0000000000	        0.0000000000	        0.0000000000	        0.0000000000	
        0.2681855151	      -13.1742336999	      570.3509232825	      -20.2009971437	        0.2970755100	        0.0000000000	        0.0510949087	       -0.9666253980	        0.3905641170	        0.0611129515	        0.0000000000	        0.0000000000	        0.0000000000	        0.0000000000	        0.0000000000	        0.0000000000	        0.0000000000	        0.0000000000	        0.0000000000	
        0.2809562539	       -9.0296659436	      567.4514146966	      -20.3768125158	        0.3014010041	        0.0000000000	        0.0508176950	       -1.2061709645	        0.4830118313	        0.0730472290	        0.0000000000	        0.0000000000	        0.0000000000	        0.0000000000	        0.0000000000	        0.0000000000	        0.0000000000	        0.0000000000	        0.0000000000	
        0.2937269927	       -4.8291467042	      564.8087446844	      -20.3782652121	        0.3059613443	        0.0000000000	        0.0504832518	       -1.3621247695	        0.5418912369	        0.0787656340	        0.0000000000	        0.0000000000	        0.0000000000	        0.0000000000	        0.0000000000	        0.0000000000	        0.0000000000	        0.0000000000	        0.0000000000	
        0.3064977315	       -1.0987404689	      561.8353330803	      -19.8742218887	        0.3106773216	        0.0000000000	        0.0500960338	       -1.4125746580	        0.5593075508	        0.0773252407	        0.0000000000	        0.0000000000	        0.0000000000	        0.0000000000	        0.0000000000	        0.0000000000	        0.0000000000	        0.0000000000	        0.0000000000	
        0.3192684704	        2.7213576848	      558.4002982125	      -18.6018750645	        0.3154473420	        0.0000000000	        0.0496765843	       -1.3696062737	        0.5403922612	        0.0693142876	        0.0000000000	        0.0000000000	        0.0000000000	        0.0000000000	        0.0000000000	        0.0000000000	        0.0000000000	        0.0000000000	        0.0000000000	
        0.3320392092	        6.4995369758	      555.6433245988	      -16.8391739756	        0.3204521169	        0.0000000000	        0.0491914470	       -1.2634587716	        0.4971449978	        0.0565612001	        0.0000000000	        0.0000000000	        0.0000000000	        0.0000000000	        0.0000000000	        0.0000000000	        0.0000000000	        0.0000000000	        0.0000000000	
